<svg width="50" height="50" viewBox="0 0 50 50" fill="none" xmlns="http://www.w3.org/2000/svg">
<circle cx="25" cy="24.9999" r="22.9167" fill="#332233"/>
<path fill-rule="evenodd" clip-rule="evenodd" d="M14.688 31.3546C17.4229 28.6197 21.1323 27.0833 25 27.0833C28.8677 27.0833 32.5771 28.6197 35.312 31.3546C38.0469 34.0895 39.5833 37.7988 39.5833 41.6666C39.5833 42.8172 38.6506 43.7499 37.5 43.7499C36.3494 43.7499 35.4167 42.8172 35.4167 41.6666C35.4167 38.9039 34.3192 36.2544 32.3657 34.3009C30.4122 32.3474 27.7627 31.2499 25 31.2499C22.2373 31.2499 19.5878 32.3474 17.6343 34.3009C15.6808 36.2544 14.5833 38.9039 14.5833 41.6666C14.5833 42.8172 13.6506 43.7499 12.5 43.7499C11.3494 43.7499 10.4167 42.8172 10.4167 41.6666C10.4167 37.7988 11.9531 34.0895 14.688 31.3546Z" fill="white"/>
<path fill-rule="evenodd" clip-rule="evenodd" d="M25 14.5834C21.5482 14.5834 18.75 17.3816 18.75 20.8334C18.75 24.2852 21.5482 27.0834 25 27.0834C28.4518 27.0834 31.25 24.2852 31.25 20.8334C31.25 17.3816 28.4518 14.5834 25 14.5834ZM14.5833 20.8334C14.5833 15.0804 19.247 10.4167 25 10.4167C30.753 10.4167 35.4167 15.0804 35.4167 20.8334C35.4167 26.5864 30.753 31.2501 25 31.2501C19.247 31.2501 14.5833 26.5864 14.5833 20.8334Z" fill="white"/>
<path fill-rule="evenodd" clip-rule="evenodd" d="M25 6.24992C14.6447 6.24992 6.25 14.6446 6.25 24.9999C6.25 35.3553 14.6447 43.7499 25 43.7499C35.3553 43.7499 43.75 35.3553 43.75 24.9999C43.75 14.6446 35.3553 6.24992 25 6.24992ZM2.08333 24.9999C2.08333 12.3434 12.3435 2.08325 25 2.08325C37.6565 2.08325 47.9167 12.3434 47.9167 24.9999C47.9167 37.6564 37.6565 47.9166 25 47.9166C12.3435 47.9166 2.08333 37.6564 2.08333 24.9999Z" fill="#332233"/>
</svg>
